<?xml version="1.0" standalone="no"?>
<!DOCTYPE svg PUBLIC "-//W3C//DTD SVG 20010904//EN"
 "http://www.w3.org/TR/2001/REC-SVG-20010904/DTD/svg10.dtd">
<svg version="1.0" xmlns="http://www.w3.org/2000/svg"
 width="330.000000pt" height="330.000000pt" viewBox="0 0 330.000000 330.000000"
 preserveAspectRatio="xMidYMid meet">
<metadata>
Created by potrace 1.14, written by Peter Selinger 2001-2017
</metadata>
<g transform="translate(0.000000,330.000000) scale(0.100000,-0.100000)"
fill="#000000" stroke="none">
<path d="M1016 2392 c-2 -1 -13 -5 -26 -7 -38 -7 -89 -54 -113 -103 l-23 -47
1 -635 c1 -349 5 -646 9 -660 15 -45 56 -90 104 -113 l47 -23 640 1 c594 1
643 3 678 19 40 20 83 65 99 105 14 33 17 1282 4 1328 -13 44 -60 99 -103 120
-33 15 -93 17 -676 17 -351 1 -640 0 -641 -2z m332 -407 c10 -23 10 -240 -1
-271 -7 -19 -14 -20 -193 -20 -160 1 -187 3 -198 17 -8 12 -11 59 -10 145 1
71 2 132 3 136 2 12 34 14 213 14 168 0 177 -1 186 -21z m410 16 l92 -1 0
-150 0 -150 -42 -1 c-198 -3 -349 -2 -354 4 -8 8 -12 275 -4 287 8 13 40 16
130 14 47 -1 127 -2 178 -3z m588 -4 c12 -11 13 -257 2 -283 -9 -19 -17 -20
-195 -20 -163 1 -186 3 -197 18 -9 13 -13 56 -12 144 2 105 5 128 19 138 19
15 370 17 383 3z m-1004 -405 c15 -15 20 -246 6 -277 -9 -20 -18 -21 -193 -20
-137 0 -187 3 -197 13 -9 9 -13 51 -14 143 -1 115 1 131 17 142 25 18 363 17
381 -1z m502 -4 c18 -24 16 -262 -2 -280 -20 -20 -368 -20 -384 0 -18 21 -19
256 -2 280 12 17 29 19 194 18 160 -1 183 -3 194 -18z m500 0 c9 -12 12 -55
10 -145 -2 -70 -4 -133 -5 -139 -2 -7 -68 -10 -197 -10 -185 1 -195 2 -202 21
-12 36 -6 275 8 284 6 4 93 7 193 7 158 -1 182 -3 193 -18z m-1000 -400 c13
-18 15 -223 2 -268 l-7 -26 -147 2 c-81 0 -159 6 -173 12 -15 6 -37 25 -49 43
-20 27 -23 45 -25 130 0 55 1 103 4 108 10 15 40 17 215 16 145 0 170 -3 180
-17z m503 9 c8 -8 12 -256 5 -288 -3 -13 -29 -15 -193 -15 -166 1 -192 3 -203
18 -12 16 -14 197 -2 243 2 11 5 25 5 32 1 6 16 13 34 15 69 7 346 3 354 -5z
m497 -9 c9 -12 12 -46 10 -105 -6 -177 -17 -186 -237 -188 -119 -1 -150 1
-160 13 -17 21 -18 256 -1 280 11 16 32 18 194 17 161 0 183 -2 194 -17z"/>
<path d="M322 2124 c-14 -10 -16 -74 -16 -509 -1 -353 2 -502 10 -513 9 -13
35 -16 128 -16 64 0 120 4 125 9 6 6 12 22 15 37 6 36 -21 55 -71 51 -20 -1
-47 4 -58 11 -21 14 -21 19 -20 424 0 226 3 413 6 417 4 3 33 7 65 9 39 3 62
10 70 21 13 17 8 51 -9 62 -19 11 -229 9 -245 -3z"/>
<path d="M2725 2125 c-20 -16 -24 -42 -11 -61 10 -13 29 -18 75 -19 33 -1 65
-5 69 -9 12 -13 10 -804 -3 -829 -9 -19 -19 -22 -68 -22 -31 0 -61 -5 -67 -11
-17 -17 -20 -51 -6 -70 19 -26 242 -28 260 -3 12 18 16 1012 4 1024 -11 11
-240 11 -253 0z"/>
</g>
</svg>
